<svg xmlns="http://www.w3.org/2000/svg" width="143" height="143" viewBox="-55.5 -55.5 143 143"><path fill="#6FCFF0" d="M3.5.1h25c2 0 3.4 1.5 3.4 3.4v25c0 2-1.5 3.4-3.4 3.4h-25c-2 0-3.4-1.5-3.4-3.4v-25C.1 1.6 1.6.1 3.5.1zM48.6 51H33.9c-1.4 0-2.4-1.1-2.4-2.4s1.1-2.4 2.4-2.4h12.2V33.9c0-1.4 1.1-2.4 2.4-2.4s2.4 1.1 2.4 2.4v14.7c.1 1.3-1 2.4-2.3 2.4zM-1.9 51h-14.7c-1.4 0-2.4-1.1-2.4-2.4V33.9c0-1.4 1.1-2.4 2.4-2.4s2.4 1.1 2.4 2.4v12.2H-2c1.4 0 2.4 1.1 2.4 2.4S-.5 51-1.9 51zM-16.6.6C-18 .6-19-.5-19-1.8v-14.7c0-1.4 1.1-2.4 2.4-2.4h14.7c1.4 0 2.4 1.1 2.4 2.4s-1.1 2.4-2.4 2.4h-12.2v12.2c0 1.4-1.1 2.5-2.5 2.5zM48.6.6c-1.4 0-2.4-1.1-2.4-2.4V-14H33.9c-1.4 0-2.4-1.1-2.4-2.4s1.1-2.4 2.4-2.4h14.7c1.4 0 2.4 1.1 2.4 2.4v14.7C51-.5 49.9.6 48.6.6z"/></svg>